<svg xmlns="http://www.w3.org/2000/svg" width="880" height="560" viewBox="0 0 880 560" role="img" aria-labelledby="title desc">
  <title id="title">DatastAIsis Enterprise Service Map</title>
  <desc id="desc">Brand-specific enterprise technology visual for DatastAIsis showing the service workflow and supporting diagram.</desc>
  <defs>
    <linearGradient id="g" x1="0" y1="0" x2="1" y2="1">
      <stop offset="0" stop-color="#2AA8FF" stop-opacity=".95"/>
      <stop offset="1" stop-color="#8B5CF6" stop-opacity=".9"/>
    </linearGradient>
    <radialGradient id="r" cx=".72" cy=".34" r=".62">
      <stop offset="0" stop-color="#2AA8FF" stop-opacity=".42"/>
      <stop offset=".55" stop-color="#8B5CF6" stop-opacity=".16"/>
      <stop offset="1" stop-color="#020817" stop-opacity="0"/>
    </radialGradient>
    <pattern id="grid" width="32" height="32" patternUnits="userSpaceOnUse">
      <path d="M32 0H0V32" fill="none" stroke="#ffffff" stroke-opacity=".06"/>
    </pattern>
    <filter id="s" x="-20%" y="-20%" width="140%" height="140%">
      <feDropShadow dx="0" dy="18" stdDeviation="18" flood-color="#000000" flood-opacity=".28"/>
    </filter>
  </defs>
  <rect width="880" height="560" rx="28" fill="#020817"/>
  <rect width="880" height="560" rx="28" fill="url(#grid)"/>
  <rect width="880" height="560" rx="28" fill="url(#r)"/>
  <path d="M54 458 C174 312 255 456 374 282 S640 132 812 256" fill="none" stroke="#2AA8FF" stroke-width="3" stroke-opacity=".28"/>
  <g filter="url(#s)" font-family="Segoe UI, Arial">
    <rect x="54" y="52" width="286" height="64" rx="18" fill="#ffffff" fill-opacity=".1" stroke="#ffffff" stroke-opacity=".16"/>
    <rect x="78" y="76" width="76" height="16" rx="8" fill="url(#g)"/>
    <text x="172" y="91" font-size="18" font-weight="850" fill="#fff">Enterprise Service Map</text>
    <g stroke="#ffffff" stroke-opacity=".22" stroke-width="2" stroke-dasharray="7 9">
      <path d="M150 212 H290"/>
      <path d="M150 304 H290"/>
      <path d="M150 396 H290"/>
    </g>
    <g>
      <rect x="58" y="170" width="192" height="66" rx="16" fill="#ffffff" fill-opacity=".09" stroke="#2AA8FF" stroke-opacity=".65"/>
      <circle cx="92" cy="203" r="15" fill="#2AA8FF"/><text x="118" y="209" font-size="15" font-weight="850" fill="#fff">Data sources</text>
      <rect x="58" y="262" width="210" height="66" rx="16" fill="#ffffff" fill-opacity=".09" stroke="#8B5CF6" stroke-opacity=".65"/>
      <circle cx="92" cy="295" r="15" fill="#8B5CF6"/><text x="118" y="301" font-size="15" font-weight="850" fill="#fff">Automation</text>
      <rect x="58" y="354" width="202" height="66" rx="16" fill="#ffffff" fill-opacity=".09" stroke="#ff3b30" stroke-opacity=".65"/>
      <circle cx="92" cy="387" r="15" fill="#ff3b30"/><text x="118" y="393" font-size="15" font-weight="850" fill="#fff">Dashboards</text>
      <rect x="58" y="446" width="228" height="66" rx="16" fill="#ffffff" fill-opacity=".09" stroke="#ffffff" stroke-opacity=".24"/>
      <circle cx="92" cy="479" r="15" fill="#fff" fill-opacity=".2"/><text x="118" y="485" font-size="15" font-weight="850" fill="#fff">AI roadmap</text>
    </g>
  </g>
    <g class="motif data" transform="translate(332 132)">
    <rect x="0" y="0" width="316" height="252" rx="20" fill="#071b31" stroke="#8B5CF6" stroke-opacity=".5"/>
    <path d="M54 190 V96 M112 190 V62 M170 190 V126 M228 190 V82" stroke="#2AA8FF" stroke-width="18" stroke-linecap="round"/>
    <path d="M56 82 C104 18 166 42 202 96 S270 156 292 62" fill="none" stroke="#8B5CF6" stroke-width="5"/>
    <g fill="#fff"><circle cx="56" cy="82" r="8"/><circle cx="202" cy="96" r="8"/><circle cx="292" cy="62" r="8"/></g>
    <path d="M42 214 H278" stroke="#dbeafe" stroke-opacity=".35"/>
  </g>
  <circle cx="748" cy="92" r="70" fill="#2AA8FF" opacity=".12"/>
  <circle cx="738" cy="466" r="96" fill="#8B5CF6" opacity=".1"/>
</svg>