<svg xmlns="http://www.w3.org/2000/svg" width="880" height="560" viewBox="0 0 880 560" role="img" aria-labelledby="title desc">
  <title id="title">DatastAIsis Impact Dashboard</title>
  <desc id="desc">Brand-specific enterprise technology visual for DatastAIsis showing the service workflow and supporting diagram.</desc>
  <defs>
    <linearGradient id="g" x1="0" y1="0" x2="1" y2="1">
      <stop offset="0" stop-color="#2AA8FF" stop-opacity=".95"/>
      <stop offset="1" stop-color="#8B5CF6" stop-opacity=".9"/>
    </linearGradient>
    <radialGradient id="r" cx=".72" cy=".34" r=".62">
      <stop offset="0" stop-color="#2AA8FF" stop-opacity=".42"/>
      <stop offset=".55" stop-color="#8B5CF6" stop-opacity=".16"/>
      <stop offset="1" stop-color="#020817" stop-opacity="0"/>
    </radialGradient>
    <pattern id="grid" width="32" height="32" patternUnits="userSpaceOnUse">
      <path d="M32 0H0V32" fill="none" stroke="#ffffff" stroke-opacity=".06"/>
    </pattern>
    <filter id="s" x="-20%" y="-20%" width="140%" height="140%">
      <feDropShadow dx="0" dy="18" stdDeviation="18" flood-color="#000000" flood-opacity=".28"/>
    </filter>
  </defs>
  <rect width="880" height="560" rx="28" fill="#020817"/>
  <rect width="880" height="560" rx="28" fill="url(#grid)"/>
  <rect width="880" height="560" rx="28" fill="url(#r)"/>
  <path d="M54 458 C174 312 255 456 374 282 S640 132 812 256" fill="none" stroke="#2AA8FF" stroke-width="3" stroke-opacity=".28"/>
  <g filter="url(#s)">
    <rect x="56" y="54" width="326" height="404" rx="22" fill="rgba(255,255,255,.08)" stroke="rgba(255,255,255,.14)"/>
    <rect x="82" y="84" width="92" height="18" rx="9" fill="url(#g)"/>
    <text x="82" y="142" font-family="Segoe UI, Arial" font-size="32" font-weight="850" fill="#fff">Impact Dashboard</text>
    <text x="82" y="184" font-family="Segoe UI, Arial" font-size="17" fill="#cbd5e1">DatastAIsis workflow visualization</text>
    <g font-family="Segoe UI, Arial" font-size="15" font-weight="800" fill="#fff">
      <rect x="82" y="232" width="250" height="42" rx="10" fill="rgba(255,255,255,.08)" stroke="#2AA8FF" stroke-opacity=".5"/><text x="104" y="259">Data sources</text>
      <rect x="82" y="292" width="250" height="42" rx="10" fill="rgba(255,255,255,.08)" stroke="#8B5CF6" stroke-opacity=".5"/><text x="104" y="319">Automation</text>
      <rect x="82" y="352" width="250" height="42" rx="10" fill="rgba(255,255,255,.08)" stroke="#ff3b30" stroke-opacity=".5"/><text x="104" y="379">Dashboards</text>
      <rect x="82" y="412" width="250" height="42" rx="10" fill="rgba(255,255,255,.08)" stroke="#ffffff" stroke-opacity=".18"/><text x="104" y="439">AI roadmap</text>
    </g>
  </g>
    <g class="motif data" transform="translate(332 132)">
    <rect x="0" y="0" width="316" height="252" rx="20" fill="#071b31" stroke="#8B5CF6" stroke-opacity=".5"/>
    <path d="M54 190 V96 M112 190 V62 M170 190 V126 M228 190 V82" stroke="#2AA8FF" stroke-width="18" stroke-linecap="round"/>
    <path d="M56 82 C104 18 166 42 202 96 S270 156 292 62" fill="none" stroke="#8B5CF6" stroke-width="5"/>
    <g fill="#fff"><circle cx="56" cy="82" r="8"/><circle cx="202" cy="96" r="8"/><circle cx="292" cy="62" r="8"/></g>
    <path d="M42 214 H278" stroke="#dbeafe" stroke-opacity=".35"/>
  </g>
  <circle cx="748" cy="92" r="70" fill="#2AA8FF" opacity=".12"/>
  <circle cx="738" cy="466" r="96" fill="#8B5CF6" opacity=".1"/>
</svg>