<svg xmlns="http://www.w3.org/2000/svg" width="880" height="560" viewBox="0 0 880 560" role="img" aria-labelledby="title desc">
  <title id="title">CodeIGNITE Inquiry Routing</title>
  <desc id="desc">Brand-specific enterprise technology visual for CodeIGNITE showing the service workflow and supporting diagram.</desc>
  <defs>
    <linearGradient id="g" x1="0" y1="0" x2="1" y2="1">
      <stop offset="0" stop-color="#FF3B30" stop-opacity=".95"/>
      <stop offset="1" stop-color="#F59E0B" stop-opacity=".9"/>
    </linearGradient>
    <radialGradient id="r" cx=".72" cy=".34" r=".62">
      <stop offset="0" stop-color="#FF3B30" stop-opacity=".42"/>
      <stop offset=".55" stop-color="#F59E0B" stop-opacity=".16"/>
      <stop offset="1" stop-color="#020817" stop-opacity="0"/>
    </radialGradient>
    <pattern id="grid" width="32" height="32" patternUnits="userSpaceOnUse">
      <path d="M32 0H0V32" fill="none" stroke="#ffffff" stroke-opacity=".06"/>
    </pattern>
    <filter id="s" x="-20%" y="-20%" width="140%" height="140%">
      <feDropShadow dx="0" dy="18" stdDeviation="18" flood-color="#000000" flood-opacity=".28"/>
    </filter>
  </defs>
  <rect width="880" height="560" rx="28" fill="#020817"/>
  <rect width="880" height="560" rx="28" fill="url(#grid)"/>
  <rect width="880" height="560" rx="28" fill="url(#r)"/>
  <path d="M54 458 C174 312 255 456 374 282 S640 132 812 256" fill="none" stroke="#FF3B30" stroke-width="3" stroke-opacity=".28"/>
  <g filter="url(#s)">
    <rect x="56" y="54" width="326" height="404" rx="22" fill="rgba(255,255,255,.08)" stroke="rgba(255,255,255,.14)"/>
    <rect x="82" y="84" width="92" height="18" rx="9" fill="url(#g)"/>
    <text x="82" y="142" font-family="Segoe UI, Arial" font-size="32" font-weight="850" fill="#fff">Inquiry Routing</text>
    <text x="82" y="184" font-family="Segoe UI, Arial" font-size="17" fill="#cbd5e1">CodeIGNITE workflow visualization</text>
    <g font-family="Segoe UI, Arial" font-size="15" font-weight="800" fill="#fff">
      <rect x="82" y="232" width="250" height="42" rx="10" fill="rgba(255,255,255,.08)" stroke="#FF3B30" stroke-opacity=".5"/><text x="104" y="259">Product scope</text>
      <rect x="82" y="292" width="250" height="42" rx="10" fill="rgba(255,255,255,.08)" stroke="#F59E0B" stroke-opacity=".5"/><text x="104" y="319">APIs</text>
      <rect x="82" y="352" width="250" height="42" rx="10" fill="rgba(255,255,255,.08)" stroke="#ff3b30" stroke-opacity=".5"/><text x="104" y="379">Platform build</text>
      <rect x="82" y="412" width="250" height="42" rx="10" fill="rgba(255,255,255,.08)" stroke="#ffffff" stroke-opacity=".18"/><text x="104" y="439">Release path</text>
    </g>
  </g>
    <g class="motif code" transform="translate(336 132)">
    <rect x="0" y="0" width="316" height="252" rx="20" fill="#071b31" stroke="#FF3B30" stroke-opacity=".5"/>
    <rect x="0" y="0" width="316" height="42" rx="20" fill="rgba(255,255,255,.1)"/>
    <circle cx="30" cy="22" r="6" fill="#ff3b30"/><circle cx="52" cy="22" r="6" fill="#F59E0B"/><circle cx="74" cy="22" r="6" fill="#FF3B30"/>
    <path d="M64 95 L34 125 L64 155 M252 95 L282 125 L252 155" fill="none" stroke="#FF3B30" stroke-width="8" stroke-linecap="round" stroke-linejoin="round"/>
    <path d="M132 176 H238 M94 78 H214 M94 118 H190 M94 138 H226" stroke="#dbeafe" stroke-width="8" stroke-opacity=".55" stroke-linecap="round"/>
    <path d="M124 218 H274" stroke="#F59E0B" stroke-width="5" stroke-linecap="round"/>
  </g>
  <circle cx="748" cy="92" r="70" fill="#FF3B30" opacity=".12"/>
  <circle cx="738" cy="466" r="96" fill="#F59E0B" opacity=".1"/>
</svg>