<svg xmlns="http://www.w3.org/2000/svg" width="880" height="560" viewBox="0 0 880 560" role="img" aria-labelledby="title desc">
  <title id="title">TechAdvisors Executive Briefing</title>
  <desc id="desc">Brand-specific enterprise technology visual for TechAdvisors showing the service workflow and supporting diagram.</desc>
  <defs>
    <linearGradient id="g" x1="0" y1="0" x2="1" y2="1">
      <stop offset="0" stop-color="#0067F0" stop-opacity=".95"/>
      <stop offset="1" stop-color="#14B8A6" stop-opacity=".9"/>
    </linearGradient>
    <radialGradient id="r" cx=".72" cy=".34" r=".62">
      <stop offset="0" stop-color="#0067F0" stop-opacity=".42"/>
      <stop offset=".55" stop-color="#14B8A6" stop-opacity=".16"/>
      <stop offset="1" stop-color="#020817" stop-opacity="0"/>
    </radialGradient>
    <pattern id="grid" width="32" height="32" patternUnits="userSpaceOnUse">
      <path d="M32 0H0V32" fill="none" stroke="#ffffff" stroke-opacity=".06"/>
    </pattern>
    <filter id="s" x="-20%" y="-20%" width="140%" height="140%">
      <feDropShadow dx="0" dy="18" stdDeviation="18" flood-color="#000000" flood-opacity=".28"/>
    </filter>
  </defs>
  <rect width="880" height="560" rx="28" fill="#020817"/>
  <rect width="880" height="560" rx="28" fill="url(#grid)"/>
  <rect width="880" height="560" rx="28" fill="url(#r)"/>
  <path d="M54 458 C174 312 255 456 374 282 S640 132 812 256" fill="none" stroke="#0067F0" stroke-width="3" stroke-opacity=".28"/>
  <g filter="url(#s)" font-family="Segoe UI, Arial">
    <rect x="54" y="52" width="286" height="64" rx="18" fill="#ffffff" fill-opacity=".1" stroke="#ffffff" stroke-opacity=".16"/>
    <rect x="78" y="76" width="76" height="16" rx="8" fill="url(#g)"/>
    <text x="172" y="91" font-size="18" font-weight="850" fill="#fff">Executive Briefing</text>
    <g stroke="#ffffff" stroke-opacity=".22" stroke-width="2" stroke-dasharray="7 9">
      <path d="M150 212 H290"/>
      <path d="M150 304 H290"/>
      <path d="M150 396 H290"/>
    </g>
    <g>
      <rect x="58" y="170" width="192" height="66" rx="16" fill="#ffffff" fill-opacity=".09" stroke="#0067F0" stroke-opacity=".65"/>
      <circle cx="92" cy="203" r="15" fill="#0067F0"/><text x="118" y="209" font-size="15" font-weight="850" fill="#fff">Decision brief</text>
      <rect x="58" y="262" width="210" height="66" rx="16" fill="#ffffff" fill-opacity=".09" stroke="#14B8A6" stroke-opacity=".65"/>
      <circle cx="92" cy="295" r="15" fill="#14B8A6"/><text x="118" y="301" font-size="15" font-weight="850" fill="#fff">Roadmap</text>
      <rect x="58" y="354" width="202" height="66" rx="16" fill="#ffffff" fill-opacity=".09" stroke="#ff3b30" stroke-opacity=".65"/>
      <circle cx="92" cy="387" r="15" fill="#ff3b30"/><text x="118" y="393" font-size="15" font-weight="850" fill="#fff">Vendor scorecard</text>
      <rect x="58" y="446" width="228" height="66" rx="16" fill="#ffffff" fill-opacity=".09" stroke="#ffffff" stroke-opacity=".24"/>
      <circle cx="92" cy="479" r="15" fill="#fff" fill-opacity=".2"/><text x="118" y="485" font-size="15" font-weight="850" fill="#fff">Executive alignment</text>
    </g>
  </g>
    <g class="motif advisory" transform="translate(342 150)">
    <rect x="0" y="0" width="292" height="230" rx="18" fill="#071b31" stroke="#0067F0" stroke-opacity=".45"/>
    <path d="M42 55 H246 M42 115 H246 M42 175 H246" stroke="#dbeafe" stroke-opacity=".18"/>
    <path d="M58 178 C92 122 132 152 164 90 S218 72 244 42" fill="none" stroke="#0067F0" stroke-width="5"/>
    <circle cx="58" cy="178" r="9" fill="#14B8A6"/><circle cx="164" cy="90" r="9" fill="#0067F0"/><circle cx="244" cy="42" r="9" fill="#ff3b30"/>
    <rect x="42" y="26" width="92" height="28" rx="6" fill="#ffffff" fill-opacity=".1"/><rect x="42" y="86" width="126" height="28" rx="6" fill="#ffffff" fill-opacity=".1"/><rect x="42" y="146" width="168" height="28" rx="6" fill="#ffffff" fill-opacity=".1"/>
  </g>
  <circle cx="748" cy="92" r="70" fill="#0067F0" opacity=".12"/>
  <circle cx="738" cy="466" r="96" fill="#14B8A6" opacity=".1"/>
</svg>