<svg xmlns="http://www.w3.org/2000/svg" width="880" height="560" viewBox="0 0 880 560" role="img" aria-labelledby="title desc">
  <title id="title">CloudEXCELON Decision Workflow</title>
  <desc id="desc">Brand-specific enterprise technology visual for CloudEXCELON showing the service workflow and supporting diagram.</desc>
  <defs>
    <linearGradient id="g" x1="0" y1="0" x2="1" y2="1">
      <stop offset="0" stop-color="#2AA8FF" stop-opacity=".95"/>
      <stop offset="1" stop-color="#0067F0" stop-opacity=".9"/>
    </linearGradient>
    <radialGradient id="r" cx=".72" cy=".34" r=".62">
      <stop offset="0" stop-color="#2AA8FF" stop-opacity=".42"/>
      <stop offset=".55" stop-color="#0067F0" stop-opacity=".16"/>
      <stop offset="1" stop-color="#020817" stop-opacity="0"/>
    </radialGradient>
    <pattern id="grid" width="32" height="32" patternUnits="userSpaceOnUse">
      <path d="M32 0H0V32" fill="none" stroke="#ffffff" stroke-opacity=".06"/>
    </pattern>
    <filter id="s" x="-20%" y="-20%" width="140%" height="140%">
      <feDropShadow dx="0" dy="18" stdDeviation="18" flood-color="#000000" flood-opacity=".28"/>
    </filter>
  </defs>
  <rect width="880" height="560" rx="28" fill="#020817"/>
  <rect width="880" height="560" rx="28" fill="url(#grid)"/>
  <rect width="880" height="560" rx="28" fill="url(#r)"/>
  <path d="M54 458 C174 312 255 456 374 282 S640 132 812 256" fill="none" stroke="#2AA8FF" stroke-width="3" stroke-opacity=".28"/>
  <g filter="url(#s)">
    <rect x="56" y="54" width="326" height="404" rx="22" fill="rgba(255,255,255,.08)" stroke="rgba(255,255,255,.14)"/>
    <rect x="82" y="84" width="92" height="18" rx="9" fill="url(#g)"/>
    <text x="82" y="142" font-family="Segoe UI, Arial" font-size="32" font-weight="850" fill="#fff">Decision Workflow</text>
    <text x="82" y="184" font-family="Segoe UI, Arial" font-size="17" fill="#cbd5e1">CloudEXCELON workflow visualization</text>
    <g font-family="Segoe UI, Arial" font-size="15" font-weight="800" fill="#fff">
      <rect x="82" y="232" width="250" height="42" rx="10" fill="rgba(255,255,255,.08)" stroke="#2AA8FF" stroke-opacity=".5"/><text x="104" y="259">Architecture</text>
      <rect x="82" y="292" width="250" height="42" rx="10" fill="rgba(255,255,255,.08)" stroke="#0067F0" stroke-opacity=".5"/><text x="104" y="319">Migration</text>
      <rect x="82" y="352" width="250" height="42" rx="10" fill="rgba(255,255,255,.08)" stroke="#ff3b30" stroke-opacity=".5"/><text x="104" y="379">Optimization</text>
      <rect x="82" y="412" width="250" height="42" rx="10" fill="rgba(255,255,255,.08)" stroke="#ffffff" stroke-opacity=".18"/><text x="104" y="439">CloudOps</text>
    </g>
  </g>
    <g class="motif cloud" transform="translate(332 136)">
    <path d="M94 112 C96 70 130 42 173 50 C192 20 246 28 260 69 C300 72 326 101 326 138 C326 179 295 206 250 206 H102 C58 206 28 178 28 139 C28 104 54 113 94 112Z" fill="rgba(42,168,255,.16)" stroke="#2AA8FF" stroke-width="4"/>
    <g stroke="#fff" stroke-opacity=".6" stroke-width="2"><path d="M98 210 V252 H252 V210 M176 208 V252 M98 252 H64 M176 252 H176 M252 252 H292"/></g>
    <g fill="#2AA8FF"><circle cx="64" cy="252" r="12"/><circle cx="176" cy="252" r="12"/><circle cx="292" cy="252" r="12"/></g>
    <rect x="106" y="104" width="152" height="56" rx="12" fill="#071b31" stroke="#0067F0"/><path d="M126 132 H238" stroke="#fff" stroke-width="6" stroke-linecap="round"/>
  </g>
  <circle cx="748" cy="92" r="70" fill="#2AA8FF" opacity=".12"/>
  <circle cx="738" cy="466" r="96" fill="#0067F0" opacity=".1"/>
</svg>