<svg xmlns="http://www.w3.org/2000/svg" width="760" height="520" viewBox="0 0 760 520" role="img" aria-labelledby="title desc">
  <title id="title">CloudEXCELON BTP Ecosystem</title>
  <desc id="desc">Abstract enterprise technology visual for CloudEXCELON showing coordinated service blocks.</desc>
  <defs>
    <linearGradient id="g" x1="0" y1="0" x2="1" y2="1">
      <stop offset="0" stop-color="#2AA8FF" stop-opacity=".95"/>
      <stop offset="1" stop-color="#0067F0" stop-opacity=".9"/>
    </linearGradient>
    <filter id="s" x="-20%" y="-20%" width="140%" height="140%">
      <feDropShadow dx="0" dy="14" stdDeviation="16" flood-color="#0f172a" flood-opacity=".16"/>
    </filter>
  </defs>
  <rect width="760" height="520" rx="26" fill="#f8fbff"/>
  <path d="M70 390 C170 250 240 430 354 250 S570 150 690 260" fill="none" stroke="#2AA8FF" stroke-width="3" stroke-opacity=".22"/>
  <circle cx="616" cy="112" r="76" fill="#2AA8FF" opacity=".12"/>
  <circle cx="132" cy="402" r="58" fill="#0067F0" opacity=".12"/>
  <rect x="66" y="58" width="628" height="70" rx="14" fill="#fff" filter="url(#s)"/>
  <rect x="88" y="82" width="104" height="20" rx="10" fill="url(#g)"/>
  <text x="214" y="98" font-family="Segoe UI, Arial" font-size="28" font-weight="800" fill="#000">BTP Ecosystem</text>
  <g filter="url(#s)">
    <rect x="88" y="178" width="220" height="116" rx="16" fill="#fff"/>
    <rect x="88" y="178" width="220" height="7" rx="4" fill="#2AA8FF"/>
    <text x="112" y="226" font-family="Segoe UI, Arial" font-size="20" font-weight="800" fill="#000">Architecture</text>
    <text x="112" y="258" font-family="Segoe UI, Arial" font-size="14" fill="#586174">Define scope and ownership</text>
    <rect x="372" y="178" width="220" height="116" rx="16" fill="#fff"/>
    <rect x="372" y="178" width="220" height="7" rx="4" fill="#0067F0"/>
    <text x="396" y="226" font-family="Segoe UI, Arial" font-size="20" font-weight="800" fill="#000">Migration</text>
    <text x="396" y="258" font-family="Segoe UI, Arial" font-size="14" fill="#586174">Compare options and risk</text>
    <rect x="176" y="340" width="220" height="116" rx="16" fill="#fff"/>
    <rect x="176" y="340" width="220" height="7" rx="4" fill="#000"/>
    <text x="200" y="388" font-family="Segoe UI, Arial" font-size="20" font-weight="800" fill="#000">Optimization</text>
    <text x="200" y="420" font-family="Segoe UI, Arial" font-size="14" fill="#586174">Move to a practical path</text>
    <rect x="462" y="340" width="220" height="116" rx="16" fill="#fff"/>
    <rect x="462" y="340" width="220" height="7" rx="4" fill="#ff3b30"/>
    <text x="486" y="388" font-family="Segoe UI, Arial" font-size="20" font-weight="800" fill="#000">CloudOps</text>
    <text x="486" y="420" font-family="Segoe UI, Arial" font-size="14" fill="#586174">Support next-step execution</text>
  </g>
  <path d="M308 236 H372 M482 294 V340 M286 294 V340" stroke="#94a3b8" stroke-width="2" stroke-dasharray="7 8"/>
</svg>