<svg xmlns="http://www.w3.org/2000/svg" width="880" height="560" viewBox="0 0 880 560" role="img" aria-labelledby="title desc">
  <title id="title">ManageSP Decision Workflow</title>
  <desc id="desc">Brand-specific enterprise technology visual for ManageSP showing the service workflow and supporting diagram.</desc>
  <defs>
    <linearGradient id="g" x1="0" y1="0" x2="1" y2="1">
      <stop offset="0" stop-color="#2AA8FF" stop-opacity=".95"/>
      <stop offset="1" stop-color="#10B981" stop-opacity=".9"/>
    </linearGradient>
    <radialGradient id="r" cx=".72" cy=".34" r=".62">
      <stop offset="0" stop-color="#2AA8FF" stop-opacity=".42"/>
      <stop offset=".55" stop-color="#10B981" stop-opacity=".16"/>
      <stop offset="1" stop-color="#020817" stop-opacity="0"/>
    </radialGradient>
    <pattern id="grid" width="32" height="32" patternUnits="userSpaceOnUse">
      <path d="M32 0H0V32" fill="none" stroke="#ffffff" stroke-opacity=".06"/>
    </pattern>
    <filter id="s" x="-20%" y="-20%" width="140%" height="140%">
      <feDropShadow dx="0" dy="18" stdDeviation="18" flood-color="#000000" flood-opacity=".28"/>
    </filter>
  </defs>
  <rect width="880" height="560" rx="28" fill="#020817"/>
  <rect width="880" height="560" rx="28" fill="url(#grid)"/>
  <rect width="880" height="560" rx="28" fill="url(#r)"/>
  <path d="M54 458 C174 312 255 456 374 282 S640 132 812 256" fill="none" stroke="#2AA8FF" stroke-width="3" stroke-opacity=".28"/>
  <g filter="url(#s)">
    <rect x="56" y="54" width="326" height="404" rx="22" fill="rgba(255,255,255,.08)" stroke="rgba(255,255,255,.14)"/>
    <rect x="82" y="84" width="92" height="18" rx="9" fill="url(#g)"/>
    <text x="82" y="142" font-family="Segoe UI, Arial" font-size="32" font-weight="850" fill="#fff">Decision Workflow</text>
    <text x="82" y="184" font-family="Segoe UI, Arial" font-size="17" fill="#cbd5e1">ManageSP workflow visualization</text>
    <g font-family="Segoe UI, Arial" font-size="15" font-weight="800" fill="#fff">
      <rect x="82" y="232" width="250" height="42" rx="10" fill="rgba(255,255,255,.08)" stroke="#2AA8FF" stroke-opacity=".5"/><text x="104" y="259">Support queue</text>
      <rect x="82" y="292" width="250" height="42" rx="10" fill="rgba(255,255,255,.08)" stroke="#10B981" stroke-opacity=".5"/><text x="104" y="319">Operations</text>
      <rect x="82" y="352" width="250" height="42" rx="10" fill="rgba(255,255,255,.08)" stroke="#ff3b30" stroke-opacity=".5"/><text x="104" y="379">Escalation</text>
      <rect x="82" y="412" width="250" height="42" rx="10" fill="rgba(255,255,255,.08)" stroke="#ffffff" stroke-opacity=".18"/><text x="104" y="439">Lifecycle</text>
    </g>
  </g>
    <g class="motif ops" transform="translate(338 138)">
    <rect x="0" y="0" width="306" height="244" rx="20" fill="#071b31" stroke="#2AA8FF" stroke-opacity=".45"/>
    <rect x="24" y="24" width="258" height="50" rx="10" fill="rgba(255,255,255,.1)"/>
    <rect x="24" y="94" width="124" height="126" rx="12" fill="rgba(42,168,255,.14)" stroke="#2AA8FF"/>
    <rect x="166" y="94" width="116" height="32" rx="8" fill="#10B981"/><rect x="166" y="142" width="116" height="32" rx="8" fill="rgba(255,255,255,.12)"/><rect x="166" y="190" width="116" height="32" rx="8" fill="rgba(255,255,255,.12)"/>
    <circle cx="62" cy="135" r="16" fill="#2AA8FF"/><circle cx="103" cy="172" r="16" fill="#10B981"/><path d="M78 145 L91 162" stroke="#fff" stroke-width="4"/>
  </g>
  <circle cx="748" cy="92" r="70" fill="#2AA8FF" opacity=".12"/>
  <circle cx="738" cy="466" r="96" fill="#10B981" opacity=".1"/>
</svg>