<svg xmlns="http://www.w3.org/2000/svg" width="880" height="560" viewBox="0 0 880 560" role="img" aria-labelledby="title desc">
  <title id="title">SecuriSCOPE Decision Workflow</title>
  <desc id="desc">Brand-specific enterprise technology visual for SecuriSCOPE showing the service workflow and supporting diagram.</desc>
  <defs>
    <linearGradient id="g" x1="0" y1="0" x2="1" y2="1">
      <stop offset="0" stop-color="#FF3B30" stop-opacity=".95"/>
      <stop offset="1" stop-color="#7C3AED" stop-opacity=".9"/>
    </linearGradient>
    <radialGradient id="r" cx=".72" cy=".34" r=".62">
      <stop offset="0" stop-color="#FF3B30" stop-opacity=".42"/>
      <stop offset=".55" stop-color="#7C3AED" stop-opacity=".16"/>
      <stop offset="1" stop-color="#020817" stop-opacity="0"/>
    </radialGradient>
    <pattern id="grid" width="32" height="32" patternUnits="userSpaceOnUse">
      <path d="M32 0H0V32" fill="none" stroke="#ffffff" stroke-opacity=".06"/>
    </pattern>
    <filter id="s" x="-20%" y="-20%" width="140%" height="140%">
      <feDropShadow dx="0" dy="18" stdDeviation="18" flood-color="#000000" flood-opacity=".28"/>
    </filter>
  </defs>
  <rect width="880" height="560" rx="28" fill="#020817"/>
  <rect width="880" height="560" rx="28" fill="url(#grid)"/>
  <rect width="880" height="560" rx="28" fill="url(#r)"/>
  <path d="M54 458 C174 312 255 456 374 282 S640 132 812 256" fill="none" stroke="#FF3B30" stroke-width="3" stroke-opacity=".28"/>
  <g filter="url(#s)" font-family="Segoe UI, Arial">
    <rect x="54" y="52" width="286" height="64" rx="18" fill="#ffffff" fill-opacity=".1" stroke="#ffffff" stroke-opacity=".16"/>
    <rect x="78" y="76" width="76" height="16" rx="8" fill="url(#g)"/>
    <text x="172" y="91" font-size="18" font-weight="850" fill="#fff">Decision Workflow</text>
    <g stroke="#ffffff" stroke-opacity=".22" stroke-width="2" stroke-dasharray="7 9">
      <path d="M150 212 H290"/>
      <path d="M150 304 H290"/>
      <path d="M150 396 H290"/>
    </g>
    <g>
      <rect x="58" y="170" width="192" height="66" rx="16" fill="#ffffff" fill-opacity=".09" stroke="#FF3B30" stroke-opacity=".65"/>
      <circle cx="92" cy="203" r="15" fill="#FF3B30"/><text x="118" y="209" font-size="15" font-weight="850" fill="#fff">Risk exposure</text>
      <rect x="58" y="262" width="210" height="66" rx="16" fill="#ffffff" fill-opacity=".09" stroke="#7C3AED" stroke-opacity=".65"/>
      <circle cx="92" cy="295" r="15" fill="#7C3AED"/><text x="118" y="301" font-size="15" font-weight="850" fill="#fff">Controls</text>
      <rect x="58" y="354" width="202" height="66" rx="16" fill="#ffffff" fill-opacity=".09" stroke="#ff3b30" stroke-opacity=".65"/>
      <circle cx="92" cy="387" r="15" fill="#ff3b30"/><text x="118" y="393" font-size="15" font-weight="850" fill="#fff">Compliance</text>
      <rect x="58" y="446" width="228" height="66" rx="16" fill="#ffffff" fill-opacity=".09" stroke="#ffffff" stroke-opacity=".24"/>
      <circle cx="92" cy="479" r="15" fill="#fff" fill-opacity=".2"/><text x="118" y="485" font-size="15" font-weight="850" fill="#fff">Resilience</text>
    </g>
  </g>
    <g class="motif security" transform="translate(348 142)">
    <circle cx="135" cy="120" r="112" fill="none" stroke="#FF3B30" stroke-width="3" stroke-opacity=".65"/>
    <circle cx="135" cy="120" r="72" fill="none" stroke="#7C3AED" stroke-width="2" stroke-dasharray="8 8"/>
    <path d="M135 48 L203 76 V121 C203 166 174 196 135 214 C96 196 67 166 67 121 V76 Z" fill="#ff3b30" fill-opacity=".18" stroke="#FF3B30" stroke-width="4"/>
    <path d="M98 122 L124 148 L174 92" fill="none" stroke="#fff" stroke-width="7" stroke-linecap="round" stroke-linejoin="round"/>
    <path d="M135 120 L232 72 M135 120 L44 185 M135 120 L248 176" stroke="#66c7ff" stroke-opacity=".55"/>
  </g>
  <circle cx="748" cy="92" r="70" fill="#FF3B30" opacity=".12"/>
  <circle cx="738" cy="466" r="96" fill="#7C3AED" opacity=".1"/>
</svg>