<svg xmlns="http://www.w3.org/2000/svg" width="880" height="560" viewBox="0 0 880 560" role="img" aria-labelledby="title desc">
  <title id="title">PraaS Inquiry Routing</title>
  <desc id="desc">Brand-specific enterprise technology visual for PraaS showing the service workflow and supporting diagram.</desc>
  <defs>
    <linearGradient id="g" x1="0" y1="0" x2="1" y2="1">
      <stop offset="0" stop-color="#2AA8FF" stop-opacity=".95"/>
      <stop offset="1" stop-color="#7C3AED" stop-opacity=".9"/>
    </linearGradient>
    <radialGradient id="r" cx=".72" cy=".34" r=".62">
      <stop offset="0" stop-color="#2AA8FF" stop-opacity=".42"/>
      <stop offset=".55" stop-color="#7C3AED" stop-opacity=".16"/>
      <stop offset="1" stop-color="#020817" stop-opacity="0"/>
    </radialGradient>
    <pattern id="grid" width="32" height="32" patternUnits="userSpaceOnUse">
      <path d="M32 0H0V32" fill="none" stroke="#ffffff" stroke-opacity=".06"/>
    </pattern>
    <filter id="s" x="-20%" y="-20%" width="140%" height="140%">
      <feDropShadow dx="0" dy="18" stdDeviation="18" flood-color="#000000" flood-opacity=".28"/>
    </filter>
  </defs>
  <rect width="880" height="560" rx="28" fill="#020817"/>
  <rect width="880" height="560" rx="28" fill="url(#grid)"/>
  <rect width="880" height="560" rx="28" fill="url(#r)"/>
  <path d="M54 458 C174 312 255 456 374 282 S640 132 812 256" fill="none" stroke="#2AA8FF" stroke-width="3" stroke-opacity=".28"/>
  <g filter="url(#s)" font-family="Segoe UI, Arial">
    <rect x="54" y="52" width="286" height="64" rx="18" fill="#ffffff" fill-opacity=".1" stroke="#ffffff" stroke-opacity=".16"/>
    <rect x="78" y="76" width="76" height="16" rx="8" fill="url(#g)"/>
    <text x="172" y="91" font-size="18" font-weight="850" fill="#fff">Inquiry Routing</text>
    <g stroke="#ffffff" stroke-opacity=".22" stroke-width="2" stroke-dasharray="7 9">
      <path d="M150 212 H290"/>
      <path d="M150 304 H290"/>
      <path d="M150 396 H290"/>
    </g>
    <g>
      <rect x="58" y="170" width="192" height="66" rx="16" fill="#ffffff" fill-opacity=".09" stroke="#2AA8FF" stroke-opacity=".65"/>
      <circle cx="92" cy="203" r="15" fill="#2AA8FF"/><text x="118" y="209" font-size="15" font-weight="850" fill="#fff">Procurement map</text>
      <rect x="58" y="262" width="210" height="66" rx="16" fill="#ffffff" fill-opacity=".09" stroke="#7C3AED" stroke-opacity=".65"/>
      <circle cx="92" cy="295" r="15" fill="#7C3AED"/><text x="118" y="301" font-size="15" font-weight="850" fill="#fff">Vendor fit</text>
      <rect x="58" y="354" width="202" height="66" rx="16" fill="#ffffff" fill-opacity=".09" stroke="#ff3b30" stroke-opacity=".65"/>
      <circle cx="92" cy="387" r="15" fill="#ff3b30"/><text x="118" y="393" font-size="15" font-weight="850" fill="#fff">License clarity</text>
      <rect x="58" y="446" width="228" height="66" rx="16" fill="#ffffff" fill-opacity=".09" stroke="#ffffff" stroke-opacity=".24"/>
      <circle cx="92" cy="479" r="15" fill="#fff" fill-opacity=".2"/><text x="118" y="485" font-size="15" font-weight="850" fill="#fff">Sourcing path</text>
    </g>
  </g>
    <g class="motif procurement" transform="translate(345 155)">
    <circle cx="132" cy="112" r="112" fill="none" stroke="#2AA8FF" stroke-width="2" stroke-opacity=".55"/>
    <path d="M28 112 H264 M132 8 V224 M54 46 C92 80 170 80 226 46 M54 178 C92 144 170 144 226 178" fill="none" stroke="#66c7ff" stroke-width="2" stroke-opacity=".45"/>
    <g fill="#fff" font-family="Segoe UI, Arial" font-weight="800" font-size="15">
      <rect x="80" y="78" width="104" height="42" rx="8" fill="#2AA8FF"/><text x="102" y="105">Vendors</text>
      <rect x="5" y="142" width="122" height="42" rx="8" fill="#071b31" stroke="#2AA8FF"/><text x="24" y="168">Contracts</text>
      <rect x="155" y="142" width="114" height="42" rx="8" fill="#071b31" stroke="#7C3AED"/><text x="181" y="168">Spend</text>
    </g>
  </g>
  <circle cx="748" cy="92" r="70" fill="#2AA8FF" opacity=".12"/>
  <circle cx="738" cy="466" r="96" fill="#7C3AED" opacity=".1"/>
</svg>